<svg xmlns="http://www.w3.org/2000/svg" width="200" height="200" viewBox="0 0 200 200">
  <g fill="#22b2b4" opacity="0.55">
    <path d="M0,-6 L1.1,-1.1 L6,0 L1.1,1.1 L0,6 L-1.1,1.1 L-6,0 L-1.1,-1.1 Z" transform="translate(34,40) scale(1.35)"/>
    <path d="M0,-6 L1.1,-1.1 L6,0 L1.1,1.1 L0,6 L-1.1,1.1 L-6,0 L-1.1,-1.1 Z" transform="translate(150,30) scale(0.9)"/>
    <path d="M0,-6 L1.1,-1.1 L6,0 L1.1,1.1 L0,6 L-1.1,1.1 L-6,0 L-1.1,-1.1 Z" transform="translate(101,72) scale(0.65)"/>
    <path d="M0,-6 L1.1,-1.1 L6,0 L1.1,1.1 L0,6 L-1.1,1.1 L-6,0 L-1.1,-1.1 Z" transform="translate(60,108) scale(1.15)"/>
    <path d="M0,-6 L1.1,-1.1 L6,0 L1.1,1.1 L0,6 L-1.1,1.1 L-6,0 L-1.1,-1.1 Z" transform="translate(168,96) scale(0.75)"/>
    <path d="M0,-6 L1.1,-1.1 L6,0 L1.1,1.1 L0,6 L-1.1,1.1 L-6,0 L-1.1,-1.1 Z" transform="translate(28,150) scale(0.85)"/>
    <path d="M0,-6 L1.1,-1.1 L6,0 L1.1,1.1 L0,6 L-1.1,1.1 L-6,0 L-1.1,-1.1 Z" transform="translate(122,138) scale(1.4)"/>
    <path d="M0,-6 L1.1,-1.1 L6,0 L1.1,1.1 L0,6 L-1.1,1.1 L-6,0 L-1.1,-1.1 Z" transform="translate(174,166) scale(0.6)"/>
    <path d="M0,-6 L1.1,-1.1 L6,0 L1.1,1.1 L0,6 L-1.1,1.1 L-6,0 L-1.1,-1.1 Z" transform="translate(84,180) scale(0.95)"/>
    <circle cx="94" cy="26" r="1.5"/>
    <circle cx="136" cy="96" r="1.3"/>
    <circle cx="46" cy="72" r="1.2"/>
    <circle cx="160" cy="132" r="1.4"/>
    <circle cx="70" cy="150" r="1.1"/>
    <circle cx="186" cy="56" r="1.3"/>
    <circle cx="112" cy="186" r="1.2"/>
  </g>
</svg>
